 <!DOCTYPE svg PUBLIC "-//W3C//DTD SVG 1.1//EN" "http://www.w3.org/Graphics/SVG/1.1/DTD/svg11.dtd">
<svg id="b4aa0806-ffe4-400d-b61e-c00fe2592d6e" data-name="Layer 1" xmlns="http://www.w3.org/2000/svg" width="865.76" height="682.89" viewBox="0 0 865.76 682.89">
<defs>
<style xmlns="http://www.w3.org/1999/xhtml">*, ::after, ::before { box-sizing: border-box; }
img, svg { vertical-align: middle; }
</style>
<style xmlns="http://www.w3.org/1999/xhtml">*, body, html { -webkit-font-smoothing: antialiased; }
img, svg { max-width: 100%; }
</style>
</defs>
<rect x="223.03" y="547.4" width="104.59" height="104.59" rx="15.33" fill="#bcbec0"/>
<path d="M409.65,625.56v11.92a7.89,7.89,0,0,0,7.9,7.9h0a7.9,7.9,0,0,0,7.9-7.9V619.67Z" fill="#f9b499"/>
<polygon points="541.96 622.17 548.78 640.29 563.85 636.01 558.5 617.39 541.96 622.17" fill="#f9b499"/>
<polygon points="407.77 627.84 392.7 484.42 440.92 484.42 430.07 627.84 407.77 627.84" fill="#2f2e41" data-secondary="true"/>
<polygon points="470.44 484.42 539.75 627.84 563.85 622.17 521.67 488.03 470.44 484.42" fill="#2f2e41" data-secondary="true"/>
<path d="M548.58,648.53s-9-5.4-1-11.34c0,0,9.61,1.63,15.23-4.66,0,0,14.38,3.68,20.31,10.1a4.38,4.38,0,0,1-1.34,6.92C577.09,651.79,567.22,653.89,548.58,648.53Z" fill="#0071f2" data-primary="true"/>
<path d="M409.65,637.48s-27.19,3.62-23.17,10c0,0,12.45,8.67,36.62.8a5.42,5.42,0,0,0,3.49-3.56c.71-2.26,1.1-5.4-1.14-7.29C425.45,637.48,417.55,642.5,409.65,637.48Z" fill="#0071f2" data-primary="true"/>
<rect x="267.96" y="58.97" width="336.26" height="429.07" fill="#ccc"/>
<rect x="290.66" y="82.27" width="288.05" height="276.6" fill="#fff"/>
<path d="M378,195.56s18.19-13,53.69-17.35c0,0,37.11,2.08,72.86,26.19,0,0-30.26,101.64-14.12,154.07H370C371.21,358.47,348.71,248.19,378,195.56Z" fill="#0071f2" data-primary="true"/>
<path d="M739.31,242.77h-68.9a9.94,9.94,0,0,0-9.94,9.94v28.12a9.94,9.94,0,0,0,9.94,9.94h24.72l7.53,11.17a2.61,2.61,0,0,0,4.41,0l7.53-11.17h24.71a10,10,0,0,0,10-9.94V252.71A10,10,0,0,0,739.31,242.77Z" fill="#ccc"/>
<path d="M476,384a6.18,6.18,0,0,1,2.12-2.16,5.24,5.24,0,0,1,7.51,2.69,6.18,6.18,0,0,1-.31,5.13,14,14,0,0,1-2.47,3.58,35.14,35.14,0,0,1-6.86,5.57,32.86,32.86,0,0,1-4.26-3.07,20.59,20.59,0,0,1-4.46-5,9.38,9.38,0,0,1-1.34-4,5.24,5.24,0,0,1,4.18-5.57,5.4,5.4,0,0,1,5.69,2.46C475.82,383.76,475.88,383.84,476,384Z" fill="#bcbec0"/>
<path d="M275.37,584.52a15.9,15.9,0,0,1,5.4-5.5c7-4.11,15.82-.92,19.08,6.84,1.89,4.5,1.12,8.8-.79,13a35.52,35.52,0,0,1-6.28,9.13,90.46,90.46,0,0,1-17.42,14.14,82.89,82.89,0,0,1-10.84-7.8,52.22,52.22,0,0,1-11.34-12.7,23.67,23.67,0,0,1-3.41-10,13.3,13.3,0,0,1,10.62-14.15,13.72,13.72,0,0,1,14.46,6.25Z" fill="#fff"/>
<path d="M729.86,260.13a8.59,8.59,0,0,1,2.94-3,7.24,7.24,0,0,1,10.37,3.72,8.5,8.5,0,0,1-.43,7.09,19.17,19.17,0,0,1-3.42,5,49.26,49.26,0,0,1-9.47,7.69,44.44,44.44,0,0,1-5.89-4.25,28.4,28.4,0,0,1-6.17-6.9,12.85,12.85,0,0,1-1.85-5.46,7.24,7.24,0,0,1,5.77-7.69,7.45,7.45,0,0,1,7.87,3.4C729.65,259.82,729.73,259.93,729.86,260.13Z" fill="#fff"/>
<rect x="291.47" y="371.12" width="44.59" height="44.59" fill="#bcbec0"/>
<path d="M299.9,412.91h27.72v-7.44a13.86,13.86,0,0,0-13.86-13.86h0a13.87,13.87,0,0,0-13.86,13.86Z" fill="#fff"/>
<circle cx="313.76" cy="382.24" r="7.23" fill="#fff"/>
<rect x="291.47" y="431.39" width="79.35" height="3.21" fill="#bcbec0"/>
<rect x="291.47" y="450.27" width="56.04" height="3.21" fill="#bcbec0"/>
<rect x="291.47" y="469.15" width="129.56" height="3.21" fill="#bcbec0"/>
<rect x="367.7" y="450.27" width="37.26" height="3.21" fill="#bcbec0"/>
<rect x="425.95" y="450.27" width="57.75" height="3.21" fill="#bcbec0"/>
<rect x="398.73" y="431.39" width="50.02" height="3.21" fill="#bcbec0"/>
<path d="M492.76,385.93h0l-2,1.06-.29-1.17,2.46-1.31h1.3v11.27h-1.47Z" fill="#bcbec0"/>
<path d="M504.79,390c0,3.83-1.42,6-3.92,6-2.2,0-3.69-2.06-3.73-5.79s1.63-5.86,3.92-5.86S504.79,386.43,504.79,390Zm-6.12.17c0,2.94.9,4.6,2.29,4.6,1.56,0,2.31-1.82,2.31-4.7s-.72-4.6-2.29-4.6C499.64,385.49,498.67,387.13,498.67,390.19Z" fill="#bcbec0"/>
<path d="M508.33,384.09h1.51v5.64h.05c.31-.45.62-.87.92-1.25l3.57-4.39h1.87l-4.23,5,4.56,6.73H514.8L511,390l-1.11,1.28v4.46h-1.51Z" fill="#bcbec0"/>
<path d="M671.72,260.76h-.06l-3.54,1.9-.53-2.09,4.45-2.38h2.34v20.34h-2.66Z" fill="#fff"/>
<path d="M693.44,268.14c0,6.92-2.56,10.74-7.07,10.74-4,0-6.67-3.73-6.73-10.46s2.94-10.57,7.07-10.57C691,257.85,693.44,261.66,693.44,268.14Zm-11,.31c0,5.29,1.62,8.3,4.13,8.3,2.81,0,4.16-3.29,4.16-8.48,0-5-1.28-8.3-4.13-8.3C684.15,260,682.4,262.92,682.4,268.45Z" fill="#fff"/>
<path d="M699.83,257.44h2.72v10.17h.09c.56-.81,1.13-1.57,1.66-2.25l6.45-7.92h3.38l-7.64,8.95,8.23,12.14H711.5l-7-10.36-2,2.32v8h-2.72Z" fill="#fff"/>
<path d="M562.6,386.11h0l-2,1.06-.29-1.16,2.46-1.32h1.3V396H562.6Z" fill="#bcbec0"/>
<path d="M567.54,384.27h1.51v5.64h.05c.31-.45.62-.87.92-1.25l3.57-4.39h1.88l-4.24,5,4.56,6.73H574l-3.85-5.74-1.11,1.28V396h-1.51Z" fill="#bcbec0"/>
<path d="M555.68,398.79l-1.87-4.51a9.46,9.46,0,1,0-2.66,3.55Z" fill="#bcbec0"/>
<rect x="592.57" y="382.24" width="139.41" height="63.21" fill="#bcbec0"/>
<circle cx="662.31" cy="414.35" r="13.26" fill="#ccc"/>
<polygon points="657.46 407.08 657.46 422.15 669.71 414.61 657.46 407.08" fill="#bcbec0"/>
<polygon points="752.07 256.46 752.07 246.88 745.54 246.88 745.54 256.16 749.26 252.71 752.07 256.46" fill="#bcbec0"/>
<path d="M622.62,133H578a7.17,7.17,0,0,0-7.18,7.18v44.6a7.17,7.17,0,0,0,7.18,7.18h26.35l8.17,13.78a2.65,2.65,0,0,0,4.77,0L626,191.11a7.2,7.2,0,0,0,3.82-6.35v-44.6A7.17,7.17,0,0,0,622.62,133Z" fill="#bcbec0"/>
<rect x="492.67" y="26.69" width="65.83" height="65.83" rx="15.33" fill="#bcbec0"/>
<rect x="141.61" y="28.63" width="43.56" height="42.61" rx="15.33" fill="#ccc"/>
<path d="M534.43,64.19a5.48,5.48,0,0,0-3.84,1.57l-8.48-4.59a5.47,5.47,0,0,0,.09-1,5.1,5.1,0,0,0-.1-1l8.67-4.92a5.48,5.48,0,1,0-1.83-4.08,6.32,6.32,0,0,0,.06.76l-8.61,5.21a5.49,5.49,0,1,0,.41,7.73l8.22,5a5.17,5.17,0,0,0-.08.89,5.49,5.49,0,1,0,5.49-5.49Z" fill="#fff"/>
<path d="M652.61,79.89S639,55.1,643.27,39.68a13.14,13.14,0,0,1,11.61-9.53,74.19,74.19,0,0,1,17.94.88s35.29,5.85,47.22,9.68a4.94,4.94,0,0,1,3.43,4.83c-.11,4.39-.78,12.19-3.79,18.36l8.89,19.33-15.1-3.78Z" fill="#bcbec0"/>
<circle cx="684.68" cy="56.88" r="13.8" fill="#fff"/>
<circle cx="679.15" cy="54.02" r="2.78" fill="#bcbec0"/>
<circle cx="689.7" cy="54.02" r="2.78" fill="#bcbec0"/>
<path d="M684.51,65.92h-.15a11.21,11.21,0,0,1-7.22-3.24.47.47,0,0,1,.68-.65,10.46,10.46,0,0,0,6.56,3,9,9,0,0,0,6.55-3,.47.47,0,0,1,.66,0,.46.46,0,0,1,0,.66A10,10,0,0,1,684.51,65.92Z" fill="#bcbec0"/>
<rect x="242.71" y="97.46" width="71.8" height="57.74" rx="14.67" fill="#bcbec0"/>
<path d="M312.06,121.08l17-9a3.42,3.42,0,0,1,5,3v22.37a3.42,3.42,0,0,1-5.24,2.9l-16.76-10.47Z" fill="#bcbec0"/>
<path d="M229.27,117.21v-9.46a2.05,2.05,0,0,1,2.77-1.92l13.42,5.07v3.66L232,119.14A2,2,0,0,1,229.27,117.21Z" fill="#bcbec0"/>
<circle cx="163.39" cy="57.57" r="2.85" fill="#fff"/>
<path d="M168.85,53.22a.53.53,0,0,1-.24-.06c-6.18-3.63-10.11-.2-10.27-.06a.47.47,0,1,1-.63-.69s4.59-4,11.38-.06a.46.46,0,0,1,.16.64A.45.45,0,0,1,168.85,53.22Z" fill="#fff"/>
<path d="M173.49,49.43a.44.44,0,0,1-.24-.07c-11.77-6.92-19.48-.12-19.55,0a.46.46,0,0,1-.66,0,.45.45,0,0,1,0-.66c.08-.07,8.3-7.33,20.66-.06a.47.47,0,0,1-.24.88Z" fill="#fff"/>
<path d="M177.55,44.41a.53.53,0,0,1-.24-.06c-16.65-9.8-27.56-.16-27.67-.06a.48.48,0,0,1-.67,0,.46.46,0,0,1,0-.66c.11-.11,11.54-10.2,28.78-.06a.47.47,0,0,1,.17.64A.48.48,0,0,1,177.55,44.41Z" fill="#fff"/>
<ellipse cx="154.07" cy="199.38" rx="45.6" ry="45.2" fill="#ccc"/>
<rect x="65.82" y="406.88" width="157.21" height="81.79" fill="#bcbec0"/>
<polygon points="117.06 468.81 137.47 431.02 147.03 449.91 152.24 438.84 167.01 468.81 117.06 468.81" fill="#fff"/>
<circle cx="167.88" cy="429.71" r="5.21" fill="#fff"/>
<path d="M354.34,308.45l-8.44,20.49s-45.4-9.62-43.39-50.41c0,0-2.68-44.16,75.53-83,0,0-12.12,20.71-14.61,61C363.43,256.59,305.33,279.93,354.34,308.45Z" fill="#0071f2" data-primary="true"/>
<path d="M504.59,339s-3.61-5.62-7.23-21.69c0,0,25.35-4.28,33.13-21.48a9.66,9.66,0,0,0-1.37-10.07c-6-7.39-20.18-22-38.65-23.49,1.72-10.36,4-21.45,7-33.12,2.23-8.75,4.65-17,7.16-24.73,9.27,5.53,20.29,14.57,32.29,26.31,16.12,15.77,32.19,36.76,32,57.65C568.87,288.36,569.68,324.92,504.59,339Z" fill="#0071f2" data-primary="true"/>
<path d="M347.17,325.85a26.26,26.26,0,0,0,19.52,7l-2.35-23.21s1,4.72-12.13,4Z" fill="#f9b499"/>
<path d="M485.75,317.69s8.61-.64,13.33,6.51c0,0,3.13,10.17,4.32,12.48,0,0-8,8.51-16.38,5.3C487,342,485.46,327.17,485.75,317.69Z" fill="#f9b499"/>
<path d="M419.55,180.14S407.24,213.1,408,256c0,0-3.75,45.53-1.34,49a548.35,548.35,0,0,1,43.66-84.8s13.5-24,22.55-32.12c0,0-19.63-8.31-41.18-9.84Z" fill="#2f2e41" data-secondary="true"/>
<path d="M748.93,234.46l2.61,5.29a.18.18,0,0,0,.12.09l5.85.85a.16.16,0,0,1,.09.27l-4.23,4.12a.16.16,0,0,0,0,.14l1,5.82a.16.16,0,0,1-.23.17l-5.23-2.75a.19.19,0,0,0-.15,0l-5.22,2.75a.16.16,0,0,1-.23-.17l1-5.82a.15.15,0,0,0,0-.14L740,241a.16.16,0,0,1,.09-.27l5.84-.85a.16.16,0,0,0,.12-.09l2.61-5.29A.16.16,0,0,1,748.93,234.46Z" fill="#bcbec0"/>
<path d="M592,182.79l1.63-12.22h-5.12v-3.68h5.68l1.18-9H590v-3.68h5.92l1.62-11.91h3.62l-1.56,11.91h6.48l1.62-11.91h3.68l-1.56,11.91h5.11v3.68h-5.67l-1.12,9h5.36v3.68h-5.92L606,182.79h-3.74l1.62-12.22h-6.48l-1.62,12.22Zm12.41-15.9,1.18-9h-6.48l-1.18,9Z" fill="#fff"/>
<path d="M431.07,182.79l3.58-24.93,21.42-3.68,2.32,33.35S440.31,193.32,431.07,182.79Z" fill="#f9b499"/>
<path d="M433.16,169.86l.92-8.26,22-4.52.52,5.23S446.7,171.68,433.16,169.86Z" fill="#f7a88f"/>
<ellipse cx="441.82" cy="139.87" rx="18.5" ry="27.03" fill="#f9b499"/>
<path d="M425.39,127.45s-8.24-1.13-4.39-9.09c0,0-12.83-7.19,1.68-10.66,0,0-10.29-2.93-4.87-9.16a28.1,28.1,0,0,1,25.88.45,30.38,30.38,0,0,1,13.74,15.85c1.75,4.51,3.6,10.32,3.27,14h-2s-6.27-15-17.45-13.58c-.51.07-1,.1-1.53.14C437.33,115.59,429.93,117,425.39,127.45Z" fill="#2f2e41" data-secondary="true"/>
<ellipse cx="460.7" cy="133.24" rx="4.62" ry="6.63" fill="#f9b499"/>
<circle cx="278.61" cy="126.33" r="14.53" fill="#fff"/>
<polygon points="273.3 118.36 273.3 134.87 286.72 126.61 273.3 118.36" fill="#bcbec0"/>
<path d="M153.19,225.35v-6.42a18.49,18.49,0,0,1-9.73-2.8l1.53-4.25a17,17,0,0,0,9.15,2.73c4.51,0,7.56-2.61,7.56-6.23s-2.48-5.65-7.18-7.56c-6.48-2.54-10.48-5.46-10.48-11,0-5.28,3.74-9.28,9.59-10.23v-6.42h3.94v6.16a17,17,0,0,1,8.26,2.23l-1.59,4.19a15.36,15.36,0,0,0-8-2.16c-4.9,0-6.74,2.92-6.74,5.46,0,3.31,2.35,5,7.88,7.25,6.54,2.67,9.85,6,9.85,11.63,0,5-3.5,9.72-10,10.8v6.61Z" fill="#fff"/>
<path d="M154.07,240.56a41.18,41.18,0,1,1,41.54-41.18A41.41,41.41,0,0,1,154.07,240.56Zm0-81a39.78,39.78,0,1,0,40.13,39.78A40,40,0,0,0,154.07,159.6Z" fill="#fff"/>
</svg>